<?xml version="1.0" encoding="utf-8"?>
<!-- Uploaded to: SVG Repo, www.svgrepo.com, Generator: SVG Repo Mixer Tools -->
<svg width="800px" height="800px" viewBox="0 0 1024 1024" class="icon"  version="1.1" xmlns="http://www.w3.org/2000/svg"><path d="M424.609 512.427H123.911v-335.75h499.756v335.75H544.52l40.999 178.935z" fill="#300604" /><path d="M600.848 199.496H146.73v290.112h288.048L543.61 610.634l-27.732-121.026h84.97z" fill="#FCE3C3" /><path d="M453.701 265.567h54.567v82.578h-54.567z" fill="#B12800" /><path d="M265.661 270.613h54.567v77.532h-54.567z" fill="#228E9D" /><path d="M355.587 309.37h54.567v38.775h-54.567z" fill="#ED8F27" /><path d="M123.807 615.823h136.461v30.664H123.807zM278.09 615.823h40.95v30.664h-40.95zM358.919 615.823h24.137v30.664h-24.137zM214.132 687.875h136.461v30.664H214.132zM368.416 687.875h40.95v30.664h-40.95zM449.244 687.875h24.137v30.664h-24.137zM612.259 464.43v36.588h-82.062l34.367 149.979-134.869-149.979H135.32V464.43z" fill="#300604" /><path d="M424.609 512.427H123.911v-59.406h499.756v59.406H544.52l40.999 178.935z" fill="#300604" /><path d="M600.848 475.84H146.73v13.768h288.048L543.61 610.634l-27.732-121.026h84.97z" fill="#B12800" /><path d="M599.262 470.712s-1.229 121.393 23.731 165.191c24.961 43.798 95.174 60.76 95.174 60.76l51.336-43.725s46.352-56.812 44.754-84.595c-1.597-27.783-38.342-163.944-38.342-163.944l-176.653 66.313z" fill="#FCE3C3" /><path d="M706.757 697.232c-11.591 0-23.183-1.85-34.217-5.556-43.829-14.715-73.278-55.67-73.278-101.906V470.712h22.819V589.77a84.601 84.601 0 0 0 57.724 80.275c17.381 5.831 36.524 5.831 53.906 0a84.605 84.605 0 0 0 57.728-80.275V470.712h22.819V589.77c0 46.236-29.449 87.191-73.282 101.906-11.031 3.707-22.623 5.556-34.219 5.556z" fill="#300604" /><path d="M718.167 879.287H502.121V777.136l141.777-124.22 8.204 1.59 2.288 1.734c7.74 6.099 16.29 10.741 25.411 13.805a84.561 84.561 0 0 0 26.956 4.405h11.41v204.837z" fill="#300604" /><path d="M524.94 856.468h170.408V696.663a107.227 107.227 0 0 1-22.808-4.987 106.26 106.26 0 0 1-24.587-11.974L524.94 787.484v68.984z" fill="#228E9D" /><path d="M911.398 879.287h-216.05V674.45h11.41a84.55 84.55 0 0 0 26.957-4.405c9.129-3.064 17.679-7.71 25.408-13.801l2.176-1.716 8.205-1.59 4.315 3.659 137.58 120.539v102.151z" fill="#300604" /><path d="M718.167 856.468h170.412v-68.984L765.566 679.702a106.28 106.28 0 0 1-24.587 11.974 107.073 107.073 0 0 1-22.812 4.987v159.805z" fill="#228E9D" /><path d="M763.382 805.969h88.405v22.819h-88.405z" fill="#300604" /><path d="M788.119 817.38l52.257-50.851v50.851zM676.278 576.046h-12.3a8.784 8.784 0 0 1-8.784-8.784v-26.046a8.784 8.784 0 0 1 8.784-8.784h12.3a8.784 8.784 0 0 1 8.784 8.784v26.046a8.784 8.784 0 0 1-8.784 8.784zM747.278 576.046h-12.3a8.784 8.784 0 0 1-8.784-8.784v-26.046a8.784 8.784 0 0 1 8.784-8.784h12.3a8.784 8.784 0 0 1 8.784 8.784v26.046a8.784 8.784 0 0 1-8.784 8.784z" fill="#300604" /><path d="M593.484 489.608s-32.905-148.509 113.291-148.509 100.81 152.965 100.81 152.965-18.331-64.798-44.203-69c-28.505-4.63-64.903 89.721-169.898 64.544z" fill="#ED8F27" /><path d="M807.585 504.064h-0.064a10 10 0 0 1-9.559-7.278c-0.043-0.153-4.52-15.812-11.935-31.623-12.383-26.406-21.691-29.814-24.249-30.229-4.764-0.77-15.625 9.168-25.208 17.94-28.039 25.663-70.408 64.447-145.419 46.458a10 10 0 0 1-7.431-7.561c-0.655-2.958-15.613-72.973 22.255-120.15 21.583-26.888 55.496-40.521 100.799-40.521 44.258 0 76.701 13.401 96.428 39.831 36.325 48.667 14.899 122.845 13.969 125.979a10 10 0 0 1-9.586 7.154z m-205.393-22.79c60.706 11.924 95.349-19.789 120.876-43.154 15.416-14.11 27.589-25.257 41.917-22.928 14.221 2.31 26.928 15.659 38.83 40.799 0.104-1.479 0.19-2.984 0.259-4.514 0.882-19.802-1.341-47.786-16.942-68.643-15.751-21.059-42.788-31.736-80.357-31.736-38.894 0-67.54 11.091-85.142 32.965-26.004 32.315-21.909 80.283-19.441 97.211z" fill="#300604" /><path d="M709.169 649.524a19.42 19.42 0 0 1-1.661-0.067c-1.979 0.044-9.23-0.312-14.612-5.465-2.539-2.432-5.566-6.896-5.566-14.363v-5.22h10.439v5.22c0 3.055 0.754 5.273 2.307 6.784 2.771 2.697 7.406 2.6 7.454 2.603 0.263-0.005 0.573 0.005 0.834 0.037 0.007 0.001 4.296 0.425 6.937-1.949 1.645-1.479 2.479-3.994 2.479-7.475v-5.22h10.439v5.22c0 6.634-2.036 11.794-6.052 15.338-4.47 3.945-9.999 4.557-12.998 4.557z" fill="#B12800" /></svg>