<?xml version="1.0" encoding="utf-8"?>
<!-- Uploaded to: SVG Repo, www.svgrepo.com, Generator: SVG Repo Mixer Tools -->
<svg width="800px" height="800px" viewBox="0 0 1024 1024" class="icon"  version="1.1" xmlns="http://www.w3.org/2000/svg"><path d="M304.65 239.444c0 14.508 11.761 26.268 26.268 26.268h25.168-25.168c-14.508 0-26.268 11.762-26.268 26.269v25.168-25.168c0-14.508-11.762-26.269-26.269-26.269h-25.168 25.168c14.507 0 26.269-11.76 26.269-26.268v-25.168 25.168z" fill="#ED8F27" /><path d="M317.983 317.149h-26.662v-25.17c0-7.134-5.806-12.931-12.941-12.931h-25.169v-26.662h25.169c7.135 0 12.941-5.807 12.941-12.941v-25.169h26.662v25.169c0 7.134 5.797 12.941 12.932 12.941v26.662c-7.135 0-12.932 5.797-12.932 12.931v25.17z m38.101-38.101h-25.169v-26.662h25.169v26.662z" fill="#ED8F27" /><path d="M710.927 177.629c0 12.077 9.79 21.866 21.866 21.866h20.951-20.951c-12.077 0-21.866 9.791-21.866 21.867v20.95-20.95c0-12.077-9.791-21.867-21.867-21.867h-20.95 20.95c12.077 0 21.867-9.789 21.867-21.866v-20.95 20.95z" fill="#ED8F27" /><path d="M722.026 242.312h-22.194V221.36c0-5.938-4.833-10.764-10.772-10.764h-20.951v-22.194h20.951c5.939 0 10.772-4.834 10.772-10.772v-20.951h22.194v20.951c0 5.938 4.826 10.772 10.765 10.772v22.194c-5.939 0-10.765 4.826-10.765 10.764v20.952z m31.716-31.716h-20.951v-22.194h20.951v22.194z" fill="#ED8F27" /><path d="M817.228 279.725c0 8.247 6.686 14.932 14.932 14.932h14.306-14.306c-8.247 0-14.932 6.685-14.932 14.932v14.307-14.307c0-8.247-6.685-14.932-14.932-14.932H787.99h14.306c8.246 0 14.932-6.685 14.932-14.932v-14.306 14.306z" fill="#ED8F27" /><path d="M824.805 323.898H809.65V309.59c0-4.055-3.3-7.356-7.356-7.356h-14.307v-15.156h14.307c4.055 0 7.356-3.3 7.356-7.356v-14.307h15.156v14.307c0 4.056 3.3 7.356 7.356 7.356v15.156c-4.056 0-7.356 3.3-7.356 7.356v14.308z m21.663-21.663h-14.307v-15.156h14.307v15.156z" fill="#ED8F27" /><path d="M735.814 552.318V446.847H308.315v46.479h11.747v58.992H153.503v272.208h748.426V552.318z" fill="#ED8F27" /><path d="M192.037 596.083h33.629v44h-33.629zM257.073 596.083h33.629v44h-33.629zM257.073 670.104h33.629v44h-33.629zM192.037 670.104h33.629v44h-33.629zM760.505 596.083h33.629v44h-33.629zM825.541 596.083h33.629v44h-33.629zM825.541 670.104h33.629v44h-33.629z" fill="#228E9D" /><path d="M324.982 493.326h410.832v262.963H324.982z" fill="#FCE3C3" /><path d="M760.505 670.104h33.629v44h-33.629zM482.2 746.963V619.624s29.69-56.927 47.98-38.638c18.289 18.289 45.932 42.129 45.932 42.129L571 744.75l-88.8 2.213z" fill="#228E9D" /><path d="M308.315 446.847l217.464-120.336L734.22 460.808z" fill="#B12800" /><path d="M441 526.923V490.77h-85.129v36.153h15.886V711.63h-18.522v38.333h84.236V711.63h-12.53V526.923zM698.545 526.923V490.77h-85.129v36.153h15.886V711.63H610.78v38.333h84.235V711.63h-12.529V526.923z" fill="#FCE3C3" /><path d="M308.315 446.847h443.972v48.096H308.315zM747.687 785.436v-29.147H301.796v29.147h-11.094v39.09h472.83v-39.09z" fill="#FCE3C3" /><path d="M528.056 396.627m-23.257 0a23.257 23.257 0 1 0 46.514 0 23.257 23.257 0 1 0-46.514 0Z" fill="#ED8F27" /><path d="M580.315 744.618h-18.067V631.622c0-20.043-16.309-36.352-36.352-36.352-20.043 0-36.345 16.309-36.345 36.352v112.996h-18.067V631.622c0-30.006 24.407-54.419 54.412-54.419 30.006 0 54.419 24.413 54.419 54.419v112.996zM315.949 493.326h18.067v259.578h-18.067zM717.747 493.326h18.067v259.578h-18.067zM438.125 540.681h-82.261c-4.987 0-9.034-4.046-9.034-9.034v-36.704c0-4.987 4.046-9.034 9.034-9.034h82.261c4.987 0 9.034 4.046 9.034 9.034v36.704c-0.001 4.988-4.047 9.034-9.034 9.034z m-73.227-18.067h64.193v-18.637h-64.193v18.637z" fill="#300604" /><path d="M422.893 725.221h-51.649a9.023 9.023 0 0 1-6.469-2.729 9.035 9.035 0 0 1-2.558-6.54l4.846-184.541a9.025 9.025 0 0 1 9.027-8.799h41.951a9.025 9.025 0 0 1 9.028 8.799l4.852 184.541a9.033 9.033 0 0 1-9.028 9.269z m-42.374-18.067h33.099l-4.376-166.474h-24.354l-4.369 166.474z" fill="#300604" /><path d="M438.184 761.938h-82.255a9.036 9.036 0 0 1-9.034-9.034v-36.716c0-4.987 4.046-9.034 9.034-9.034h82.255c4.987 0 9.034 4.046 9.034 9.034v36.716c-0.001 4.987-4.047 9.034-9.034 9.034z m-73.221-18.067h64.187v-18.649h-64.187v18.649zM680.489 725.221h-51.66a9.031 9.031 0 0 1-9.027-9.269l4.858-184.541a9.026 9.026 0 0 1 9.028-8.799h41.951a9.024 9.024 0 0 1 9.027 8.799l4.852 184.541a9.031 9.031 0 0 1-9.029 9.269z m-42.385-18.067h33.111l-4.376-166.474h-24.354l-4.381 166.474z" fill="#300604" /><path d="M695.721 540.681h-82.255c-4.987 0-9.034-4.046-9.034-9.034v-36.704c0-4.987 4.047-9.034 9.034-9.034h82.255a9.036 9.036 0 0 1 9.034 9.034v36.704a9.036 9.036 0 0 1-9.034 9.034zM622.5 522.614h64.188v-18.637H622.5v18.637zM695.787 761.938h-82.249a9.036 9.036 0 0 1-9.034-9.034v-36.716c0-4.987 4.046-9.034 9.034-9.034h82.249c4.987 0 9.034 4.046 9.034 9.034v36.716c-0.001 4.987-4.047 9.034-9.034 9.034z m-73.215-18.067h64.181v-18.649h-64.181v18.649z" fill="#300604" /><path d="M743.254 503.976H308.309c-4.987 0-9.034-4.046-9.034-9.034V455.88a9.035 9.035 0 0 1 4.14-7.593l217.47-140.114a9.045 9.045 0 0 1 9.786 0l217.475 140.114a9.033 9.033 0 0 1 4.14 7.593v39.063c0.001 4.987-4.045 9.033-9.032 9.033z m-425.912-18.067H734.22v-25.101L525.779 326.511 317.342 460.808v25.101z" fill="#300604" /><path d="M525.826 426.938c-17.049 0-30.924-13.874-30.924-30.923 0-17.05 13.874-30.924 30.924-30.924 17.055 0 30.935 13.874 30.935 30.924-0.001 17.05-13.88 30.923-30.935 30.923z m0-43.779c-7.087 0-12.857 5.769-12.857 12.857 0 7.087 5.769 12.856 12.857 12.856 7.093 0 12.868-5.769 12.868-12.856-0.001-7.088-5.776-12.857-12.868-12.857zM308.315 446.847h434.939v18.067H308.315zM135.243 539.287h189.74v18.067h-189.74zM726.781 539.287h189.734v18.067H726.781zM857.514 646.143h-30.777c-4.987 0-9.034-4.046-9.034-9.034V598.44a9.036 9.036 0 0 1 9.034-9.034h30.777c4.987 0 9.034 4.046 9.034 9.034v38.669c-0.001 4.988-4.047 9.034-9.034 9.034z m-21.743-18.067h12.71v-20.602h-12.71v20.602zM857.514 720.47h-30.777c-4.987 0-9.034-4.046-9.034-9.034v-38.664c0-4.987 4.046-9.034 9.034-9.034h30.777c4.987 0 9.034 4.046 9.034 9.034v38.664c-0.001 4.987-4.047 9.034-9.034 9.034z m-21.743-18.067h12.71v-20.596h-12.71v20.596zM791.209 646.143h-30.771c-4.987 0-9.034-4.046-9.034-9.034V598.44a9.036 9.036 0 0 1 9.034-9.034h30.771c4.987 0 9.034 4.046 9.034 9.034v38.669c-0.001 4.988-4.047 9.034-9.034 9.034z m-21.737-18.067h12.704v-20.602h-12.704v20.602zM791.209 720.47h-30.771c-4.987 0-9.034-4.046-9.034-9.034v-38.664c0-4.987 4.046-9.034 9.034-9.034h30.771c4.987 0 9.034 4.046 9.034 9.034v38.664c-0.001 4.987-4.047 9.034-9.034 9.034z m-21.737-18.067h12.704v-20.596h-12.704v20.596zM290.46 646.143h-30.783c-4.987 0-9.034-4.046-9.034-9.034V598.44a9.036 9.036 0 0 1 9.034-9.034h30.783c4.987 0 9.034 4.046 9.034 9.034v38.669c-0.001 4.988-4.047 9.034-9.034 9.034z m-21.749-18.067h12.716v-20.602h-12.716v20.602zM290.46 720.47h-30.783c-4.987 0-9.034-4.046-9.034-9.034v-38.664c0-4.987 4.046-9.034 9.034-9.034h30.783c4.987 0 9.034 4.046 9.034 9.034v38.664c-0.001 4.987-4.047 9.034-9.034 9.034z m-21.749-18.067h12.716v-20.596h-12.716v20.596zM224.155 646.143h-30.771c-4.987 0-9.034-4.046-9.034-9.034V598.44a9.036 9.036 0 0 1 9.034-9.034h30.771c4.987 0 9.034 4.046 9.034 9.034v38.669c-0.001 4.988-4.047 9.034-9.034 9.034z m-21.737-18.067h12.704v-20.602h-12.704v20.602zM224.155 720.47h-30.771c-4.987 0-9.034-4.046-9.034-9.034v-38.664c0-4.987 4.046-9.034 9.034-9.034h30.771c4.987 0 9.034 4.046 9.034 9.034v38.664c-0.001 4.987-4.047 9.034-9.034 9.034z m-21.737-18.067h12.704v-20.596h-12.704v20.596zM743.442 797.749H308.174c-4.987 0-9.034-4.046-9.034-9.034v-35.811c0-4.987 4.046-9.034 9.034-9.034h435.268c4.987 0 9.034 4.046 9.034 9.034v35.811c0 4.987-4.047 9.034-9.034 9.034z m-426.234-18.067h417.201v-17.744H317.208v17.744z" fill="#300604" /><path d="M763.691 833.559h-475.76a9.036 9.036 0 0 1-9.034-9.034v-35.811c0-4.987 4.046-9.034 9.034-9.034h475.76c4.987 0 9.034 4.046 9.034 9.034v35.811c-0.001 4.988-4.047 9.034-9.034 9.034z m-466.726-18.067h457.693v-17.744H296.965v17.744z" fill="#300604" /><path d="M287.731 833.624h-0.012l-129.075-0.188a9.057 9.057 0 0 1-6.387-2.653 9.056 9.056 0 0 1-2.635-6.393l0.406-276.205a9.062 9.062 0 0 1 2.652-6.387 9.038 9.038 0 0 1 6.381-2.635h0.012l166.121 0.247c4.993 0.006 9.027 4.058 9.021 9.046l-0.294 204.584c-0.006 4.987-4.052 9.021-9.034 9.021h-0.012l-7.769-0.011-0.042 26.777c-0.005 4.982-4.052 9.016-9.034 9.016h-0.011l-11.215-0.017-0.041 26.783c-0.004 4.98-4.051 9.015-9.032 9.015z m-120.03-18.244l111.014 0.165 0.041-26.783c0.006-4.981 4.052-9.016 9.034-9.016h0.012l11.215 0.018 0.041-26.777c0.006-4.982 4.053-9.016 9.034-9.016h0.012l7.763 0.012 0.27-186.516-148.053-0.224-0.383 258.137zM892.895 833.559H763.691c-4.987 0-9.034-4.046-9.034-9.034v-26.777h-11.215a9.036 9.036 0 0 1-9.034-9.034v-26.777h-7.628a9.036 9.036 0 0 1-9.034-9.034V548.321c0-4.987 4.046-9.034 9.034-9.034h166.115c4.987 0 9.034 4.046 9.034 9.034v276.205c0 4.987-4.047 9.033-9.034 9.033z m-120.171-18.067h111.137V557.354H735.814v186.517h7.628c4.987 0 9.034 4.046 9.034 9.034v26.777h11.215c4.987 0 9.034 4.046 9.034 9.034v26.776z" fill="#300604" /><path d="M515.033 211.401h19.705v99.772h-19.705z" fill="#300604" /><path d="M524.885 217.402h69.701v54.274h-69.701z" fill="#B12800" /><path d="M601.181 278.271h-82.89v-67.464h82.89v67.464z m-69.701-13.19h56.511v-41.085H531.48v41.085z" fill="#300604" /></svg>